# AST/ASF file generated using VICON BodyLanguage
# -----------------------------------------------
:version 1.10
:name VICON
:units
  mass 1.0
  length 0.45
  angle deg
:documentation
   .ast/.asf automatically generated from VICON data using
   VICON BodyBuilder and BodyLanguage model FoxedUp or BRILLIANT.MOD
:root
   order TX TY TZ RX RY RZ
   axis XYZ
   position 0 0 0  
   orientation 0 0 0 
:bonedata
  begin
     id 1 
     name lhipjoint
     direction 0.528046 -0.759594 0.379717 
     length 2.39752 
     axis 0 0 0  XYZ
  end
  begin
     id 2 
     name lfemur
     direction 0.34202 -0.939693 0  
     length 7.31175  
     axis 0 0 20  XYZ
    dof rx ry rz
    limits (-160.0 20.0)
           (-70.0 70.0)
           (-60.0 70.0)
  end
  begin
     id 3 
     name ltibia
     direction 0.34202 -0.939693 0   
     length 7.52482   
     axis 0 0 20   XYZ
    dof rx
    limits (-10.0 170.0)
  end
  begin
     id 4 
     name lfoot
     direction 0.0675379 -0.185559 0.980309   
     length 2.00961   
     axis -90 7.62852e-016 20   XYZ
    dof rx rz
    limits (-45.0 90.0)
           (-70.0 20.0)
  end
  begin
     id 5 
     name ltoes
     direction 1.5352e-011 -4.22286e-011 1   
     length 1.01383   
     axis -90 7.62852e-016 20   XYZ
    dof rx
    limits (-90.0 20.0)
  end
  begin
     id 6 
     name rhipjoint
     direction -0.510274 -0.769251 0.384544   
     length 2.36742  
     axis 0 0 0  XYZ 
  end
  begin
     id 7 
     name rfemur
     direction -0.34202 -0.939693 0   
     length 7.45325   
     axis 0 0 -20   XYZ
    dof rx ry rz
    limits (-160.0 20.0)
           (-70.0 70.0)
           (-70.0 60.0)
  end
  begin
     id 8 
     name rtibia
     direction -0.34202 -0.939693 0   
     length 7.49587   
     axis 0 0 -20   XYZ
    dof rx
    limits (-10.0 170.0)
 end
 begin
     id 9 
     name rfoot
     direction -0.106475 -0.292536 0.950308   
     length 2.20898  
     axis -90 -7.62852e-016 -20   XYZ
    dof rx rz
    limits (-45.0 90.0)
           (-20.0 70.0)
  end
  begin
     id 10 
     name rtoes
     direction -1.53597e-011 -4.22023e-011 1   
     length 1.10065   
     axis -90 -7.62852e-016 -20   XYZ
    dof rx
    limits (-90.0 20.0)
  end
  begin
     id 11 
     name lowerback
     direction 0.0260024 0.998026 -0.0571652   
     length 2.11214   
     axis 0 0 0   XYZ
    dof rx ry rz
    limits (-20.0 45.0)
           (-30.0 30.0)
           (-30.0 30.0)
  end
  begin
     id 12 
     name upperback
     direction 0.0216202 0.999542 -0.0211766   
     length 2.11689   
     axis 0 0 0   XYZ
    dof rx ry rz
    limits (-20.0 45.0)
           (-30.0 30.0)
           (-30.0 30.0)
  end
  begin
     id 13 
     name thorax
     direction 0.00883312 0.999944 0.00589057   
     length 2.11821   
     axis 0 0 0   XYZ
    dof rx ry rz
    limits (-20.0 45.0)
           (-30.0 30.0)
           (-30.0 30.0)
  end
  begin
     id 14 
     name lowerneck
     direction -0.059386 0.994433 0.0870401   
     length 1.81176   
     axis 0 0 0   XYZ
    dof rx ry rz
    limits (-20.0 45.0)
           (-30.0 30.0)
           (-30.0 30.0)
  end
  begin
     id 15 
     name upperneck
     direction 0.0506457 0.97328 -0.223967   
     length 1.82382   
     axis 0 0 0   XYZ
    dof rx ry rz
    limits (-20.0 45.0)
           (-30.0 30.0)
           (-30.0 30.0)
  end
  begin
     id 16
     name head
     direction 0.0205902 0.996147 -0.0852487  
     length 1.84805  
     axis 0 0 0   XYZ
    dof rx ry rz
    limits (-20.0 45.0)
           (-30.0 30.0)
           (-30.0 30.0)
  end
  begin
     id 17 
     name lclavicle
     direction 0.949493 0.303881 -0.0782325  
     length 3.60584  
     axis 0 0 0   XYZ
    dof ry rz
    limits (-20.0 10.0)
           (0.0 20.0)
  end
  begin
     id 18 
     name lhumerus
     direction 1 -4.48965e-011 1.48782e-027   
     length 4.95681   
     axis 180 -30 -90   XYZ
    dof rx ry rz
    limits (-60.0 90.0)
           (-90.0 90.0)
           (-90.0 90.0)
  end
  begin
     id 19
     name lradius
     direction 1 -4.48952e-011 2.06528e-027   
     length 3.40915   
     axis 180 -30 -90   XYZ
    dof rx
    limits (-10.0 170.0)
  end
  begin
     id 20
     name lwrist
     direction 1 -4.48964e-011 1.28021e-027   
     length 1.70457   
     axis -1.61767e-015 90 90   XYZ
    dof ry
    limits (-180.0 0.0)
 end
  begin
     id 21 
     name lhand
     direction 1 -4.49094e-011 2.54887e-027   
     length 0.616403   
     axis -1.63363e-015 90 90   XYZ
    dof rx rz
    limits (-90.0 90.0)
           (-45.0 45.0)
  end
  begin
     id 22 
     name lfingers
     direction 1 -4.49002e-011 5.11407e-027   
     length 0.49696   
     axis -3.26723e-015 90 90   XYZ
    dof rx
    limits (0.0 90.0)
  end
  begin
     id 23
     name lthumb
     direction 0.707107 -6.34998e-011 0.707107   
     length 0.713539   
     axis -90 45 -2.25915e-014   XYZ
    dof rx rz
    limits (-45.0 45.0)
           (-45.0 45.0)
  end
  begin
     id 24 
     name rclavicle
     direction -0.937751 0.334612 -0.0930482   
     length 3.46287  
     axis 0 0 0   XYZ 
    dof ry rz
    limits (-10.0 20.0)
           (-20.0 0.0)
  end
  begin
     id 25 
     name rhumerus
     direction -1 -4.48962e-011 3.59972e-027  
     length 5.352   
     axis 180 30 90   XYZ
    dof rx ry rz
    limits (-90.0 60.0)
           (-90.0 90.0)
           (-90.0 90.0)
  end
  begin
     id 26 
     name rradius
     direction -1 -4.48987e-011 -3.76925e-027   
     length 3.43721   
     axis 180 30 90   XYZ
    dof rx
    limits (-10.0 170.0)
  end
  begin
     id 27 
     name rwrist
     direction -1 -4.48943e-011 1.28112e-027   
     length 1.7186   
     axis -1.61767e-015 -90 -90   XYZ
    dof ry
    limits (-180.0 0.0)
  end
  begin
     id 28
     name rhand
     direction -1 -4.49027e-011 2.55483e-027   
     length 0.72009   
     axis -1.63363e-015 -90 -90   XYZ
    dof rx rz
    limits (-90.0 90.0)
           (-45.0 45.0)
  end
  begin
     id 29
     name rfingers
     direction -1 -4.48827e-011 5.14506e-027   
     length 0.580555   
     axis -3.26723e-015 -90 -90   XYZ
    dof rx
    limits (0.0 90.0)
  end
  begin
     id 30
     name rthumb
     direction -0.707107 -6.34936e-011 0.707107   
     length 0.833564   
     axis -90 -45 2.25915e-014   XYZ
    dof rx rz
    limits (-45.0 45.0)
           (-45.0 45.0)
  end
:hierarchy
  begin
    root lhipjoint rhipjoint lowerback
    lhipjoint lfemur
    lfemur ltibia
    ltibia lfoot
    lfoot ltoes
    rhipjoint rfemur
    rfemur rtibia
    rtibia rfoot
    rfoot rtoes
    lowerback upperback
    upperback thorax
    thorax lowerneck lclavicle rclavicle
    lowerneck upperneck
    upperneck head
    lclavicle lhumerus
    lhumerus lradius
    lradius lwrist
    lwrist lhand lthumb
    lhand lfingers
    rclavicle rhumerus
    rhumerus rradius
    rradius rwrist
    rwrist rhand rthumb
    rhand rfingers
  end

#!OML:ASF H:\Terrain\Patient Classification 1\Terrain2\Thursday\justin.ASF
:FULLY-SPECIFIED
:DEGREES
265
root -13.6278 17.2166 -11.4496 -164.15 78.5237 -163.631
lowerback 5.20934 -0.365361 -3.4159
upperback 3.18715 -0.534022 2.73539
thorax 0.42733 -0.301119 4.7737
lowerneck -11.0566 -5.21677 -9.78238
upperneck 40.8022 -5.46982 6.72613
head 17.3504 -2.13506 4.11566
rclavicle 1.75676e-014 -2.98177e-014
rhumerus -30.8509 -17.1918 -71.4369
rradius 28.8263
rwrist -16.4352
rhand -25.8082 12.1574
rfingers 7.12502
rthumb 0.731036 -17.8211
lclavicle 1.75676e-014 -2.98177e-014
lhumerus -28.4195 13.4851 72.2922
lradius 24.0038
lwrist -2.40007
lhand -19.5803 23.8186
lfingers 7.12502
lthumb 6.74499 53.6912
rfemur -19.2794 2.95256 19.4631
rtibia 38.8159
rfoot -23.2771 14.1754
rtoes -15.8128
lfemur -3.65943 -2.90214 -16.1395
ltibia 23.7236
lfoot -13.8058 -15.8889
ltoes 21.072
266
root -13.6462 17.2377 -11.4732 -163.62 79.2379 -163.202
lowerback 5.18237 -0.814604 -4.09571
upperback 3.17903 -1.1534 3.3434
thorax 0.534557 -0.627807 5.82733
lowerneck -11.3925 -4.72425 -10.9234
upperneck 40.9088 -4.25491 6.41764
head 17.3831 -1.87097 4.39421
rclavicle 3.8763e-015 -1.09332e-014
rhumerus -30.3144 -16.6525 -70.8565
rradius 28.2052
rwrist -14.3885
rhand -24.971 11.9216
rfingers 7.12502
rthumb 1.53958 -18.0526
lclavicle 3.8763e-015 -1.09332e-014
lhumerus -28.9391 15.8967 71.939
lradius 24.6004
lwrist -1.93577
lhand -20.0989 23.6352
lfingers 7.12502
lthumb 6.24429 53.5232
rfemur -19.5533 1.75498 19.7739
rtibia 39.5789
rfoot -23.6759 10.802
rtoes -13.2006
lfemur -3.49524 -2.59918 -16.3773
ltibia 23.3456
lfoot -13.8083 -15.5232
ltoes 20.4841
267
root -13.6621 17.2543 -11.4913 -161.967 79.8453 -161.566
lowerback 5.18574 -0.428417 -3.6226
upperback 3.25906 -0.61963 3.10563
thorax 0.53341 -0.352084 5.28279
lowerneck -11.5573 -5.00268 -11.1307
upperneck 40.8347 -4.85085 6.9916
head 17.4986 -2.07417 4.59415
rclavicle 2.48232e-014 1.11319e-014
rhumerus -30.9562 -18.2914 -70.6404
rradius 28.084
rwrist -13.5794
rhand -24.8606 11.8279
rfingers 7.12502
rthumb 1.64618 -18.1455
lclavicle 2.48232e-014 1.11319e-014
lhumerus -28.0154 14.9654 71.8075
lradius 25.0233
lwrist -1.08016
lhand -20.3097 23.4829
lfingers 7.12502
lthumb 6.04083 53.3768
rfemur -19.6684 0.604152 20.3649
rtibia 40.3948
rfoot -24.3135 7.29608
rtoes -11.1301
lfemur -3.15852 -2.05629 -16.2715
ltibia 22.6844
lfoot -13.3984 -15.6025
ltoes 21.3333
268
root -13.6744 17.2562 -11.5107 -161.274 80.6662 -160.906
lowerback 5.10605 -0.385981 -3.75762
upperback 3.30471 -0.566992 3.12405
thorax 0.621249 -0.331221 5.37594
lowerneck -11.1442 -4.81813 -9.99278
upperneck 40.3554 -4.61077 6.0248
head 16.9895 -1.93366 3.93938
rclavicle 1.87852e-014 -1.5704e-014
rhumerus -30.9606 -18.1595 -70.6148
rradius 27.4858
rwrist -12.8882
rhand -24.3622 11.8602
rfingers 7.12502
rthumb 2.12756 -18.1089
lclavicle 1.87852e-014 -1.5704e-014
lhumerus -27.8786 14.4589 71.6935
lradius 25.6633
lwrist 0.55406
lhand -20.762 23.5442
lfingers 7.12502
lthumb 5.60412 53.4501
rfemur -19.6943 -0.447848 20.6274
rtibia 41.1434
rfoot -24.8529 4.28558
rtoes -10.2009
lfemur -2.87228 -1.48299 -16.5229
ltibia 22.186
lfoot -13.2867 -15.3971
ltoes 20.9876
269
root -13.6857 17.2984 -11.5302 -161.29 81.4173 -160.947
lowerback 5.1048 -0.28706 -3.89017
upperback 3.31621 -0.443345 3.01023
thorax 0.619175 -0.271467 5.32677
lowerneck -11.4769 -4.78209 -11.1982
upperneck 40.5891 -4.45705 6.77027
head 17.2726 -1.96301 4.5493
rclavicle -1.72446e-014 5.96354e-016
rhumerus -31.0968 -18.9363 -70.348
rradius 26.5656
rwrist -11.5973
rhand -23.722 12.135
rfingers 7.12502
rthumb 2.7458 -17.8271
lclavicle -1.72446e-014 5.96354e-016
lhumerus -27.5871 13.7519 71.4495
lradius 26.2084
lwrist 2.07071
lhand -20.9395 23.6067
lfingers 7.12502
lthumb 5.43277 53.5171
rfemur -19.6837 -0.62919 20.4252
rtibia 41.9063
rfoot -24.8538 3.93382
rtoes 2.18412
lfemur -2.61908 -1.49361 -16.9098
ltibia 21.8525
lfoot -13.1975 -14.9318
ltoes 22.0123
